<?xml version="1.0" encoding="UTF-8" standalone="no"?>
<!-- Created with Inkscape (http://www.inkscape.org/) -->

<svg
   xmlns:osb="http://www.openswatchbook.org/uri/2009/osb"
   xmlns:dc="http://purl.org/dc/elements/1.1/"
   xmlns:cc="http://creativecommons.org/ns#"
   xmlns:rdf="http://www.w3.org/1999/02/22-rdf-syntax-ns#"
   xmlns:svg="http://www.w3.org/2000/svg"
   xmlns="http://www.w3.org/2000/svg"
   xmlns:sodipodi="http://sodipodi.sourceforge.net/DTD/sodipodi-0.dtd"
   xmlns:inkscape="http://www.inkscape.org/namespaces/inkscape"
   width="210mm"
   height="297mm"
   viewBox="0 0 744.09448819 1052.3622047"
   id="svg2"
   version="1.1"
   inkscape:version="0.91 r13725"
   sodipodi:docname="Female_face.svg">
  <defs
     id="defs4">
    <inkscape:path-effect
       effect="powerstroke"
       id="path-effect3395"
       is_visible="true"
       offset_points="0,0.5"
       sort_points="true"
       interpolator_type="CubicBezierJohan"
       interpolator_beta="0.2"
       start_linecap_type="zerowidth"
       linejoin_type="round"
       miter_limit="4"
       end_linecap_type="zerowidth"
       cusp_linecap_type="round" />
    <inkscape:path-effect
       effect="powerstroke"
       id="path-effect3370"
       is_visible="true"
       offset_points="0,0.5"
       sort_points="true"
       interpolator_type="CubicBezierJohan"
       interpolator_beta="0.2"
       start_linecap_type="zerowidth"
       linejoin_type="round"
       miter_limit="4"
       end_linecap_type="zerowidth"
       cusp_linecap_type="round" />
    <inkscape:path-effect
       effect="powerstroke"
       id="path-effect6225"
       is_visible="true"
       offset_points="0,0.5"
       sort_points="true"
       interpolator_type="CubicBezierJohan"
       interpolator_beta="0.2"
       start_linecap_type="zerowidth"
       linejoin_type="round"
       miter_limit="4"
       end_linecap_type="zerowidth"
       cusp_linecap_type="round" />
    <inkscape:path-effect
       effect="powerstroke"
       id="path-effect6209"
       is_visible="true"
       offset_points="0,0.33268406"
       sort_points="true"
       interpolator_type="CubicBezierJohan"
       interpolator_beta="0.2"
       start_linecap_type="zerowidth"
       linejoin_type="round"
       miter_limit="4"
       end_linecap_type="zerowidth"
       cusp_linecap_type="round" />
    <inkscape:path-effect
       cusp_linecap_type="round"
       end_linecap_type="zerowidth"
       miter_limit="4"
       linejoin_type="round"
       start_linecap_type="zerowidth"
       interpolator_beta="0.2"
       interpolator_type="CubicBezierJohan"
       sort_points="true"
       offset_points="0,0.5"
       is_visible="true"
       id="path-effect6193"
       effect="powerstroke" />
    <inkscape:path-effect
       effect="powerstroke"
       id="path-effect6185"
       is_visible="true"
       offset_points="0,0.5"
       sort_points="true"
       interpolator_type="CubicBezierJohan"
       interpolator_beta="0.2"
       start_linecap_type="zerowidth"
       linejoin_type="round"
       miter_limit="4"
       end_linecap_type="zerowidth"
       cusp_linecap_type="round" />
    <inkscape:path-effect
       effect="powerstroke"
       id="path-effect6171"
       is_visible="true"
       offset_points="0,0.5"
       sort_points="true"
       interpolator_type="CubicBezierJohan"
       interpolator_beta="0.2"
       start_linecap_type="zerowidth"
       linejoin_type="round"
       miter_limit="4"
       end_linecap_type="zerowidth"
       cusp_linecap_type="round" />
    <inkscape:path-effect
       effect="powerstroke"
       id="path-effect6167"
       is_visible="true"
       offset_points="0,0.5"
       sort_points="true"
       interpolator_type="CubicBezierJohan"
       interpolator_beta="0.2"
       start_linecap_type="zerowidth"
       linejoin_type="round"
       miter_limit="4"
       end_linecap_type="zerowidth"
       cusp_linecap_type="round" />
    <linearGradient
       id="linearGradient6111"
       osb:paint="solid">
      <stop
         style="stop-color:#ffffff;stop-opacity:1;"
         offset="0"
         id="stop6113" />
    </linearGradient>
    <linearGradient
       id="linearGradient6086"
       osb:paint="solid">
      <stop
         style="stop-color:#fff8f8;stop-opacity:1;"
         offset="0"
         id="stop6088" />
    </linearGradient>
    <linearGradient
       id="linearGradient5984"
       osb:paint="solid">
      <stop
         style="stop-color:#000000;stop-opacity:1;"
         offset="0"
         id="stop5986" />
    </linearGradient>
  </defs>
  <sodipodi:namedview
     id="base"
     pagecolor="#ffffff"
     bordercolor="#666666"
     borderopacity="1.0"
     inkscape:pageopacity="0.0"
     inkscape:pageshadow="2"
     inkscape:zoom="0.5"
     inkscape:cx="331.01969"
     inkscape:cy="544.77148"
     inkscape:document-units="px"
     inkscape:current-layer="layer1"
     showgrid="false"
     inkscape:window-width="1280"
     inkscape:window-height="660"
     inkscape:window-x="-8"
     inkscape:window-y="-8"
     inkscape:window-maximized="1" />
  <metadata
     id="metadata7">
    <rdf:RDF>
      <cc:Work
         rdf:about="">
        <dc:format>image/svg+xml</dc:format>
        <dc:type
           rdf:resource="http://purl.org/dc/dcmitype/StillImage" />
        <dc:title />
      </cc:Work>
    </rdf:RDF>
  </metadata>
  <g
     inkscape:label="Layer 1"
     inkscape:groupmode="layer"
     id="layer1">
    <path
       style="opacity:1;fill:#d4637e;fill-opacity:1"
       d="m 543.92354,337.82097 c -10e-6,97.06343 -82.71147,270.67893 -181.90037,270.67893 -99.1889,0 -177.29442,-173.6155 -177.29443,-270.67893 0,-97.06343 62.31642,-162.91363 182.03074,-162.92392 99.32155,-0.009 177.16406,65.86049 177.16406,162.92392 z"
       id="path6014"
       inkscape:connector-curvature="0"
       sodipodi:nodetypes="sssss" />
    <path
       style="opacity:1;fill:#d4637e;fill-opacity:1"
       d="m 209.10218,416.90437 c 4.93881,46.05449 -6.55039,46.73387 -22.98441,54.03208 -16.43403,7.29819 -35.46262,-20.56995 -44.3073,-64.88986 -8.84471,-44.31993 -4.71421,-91.10467 9.61769,-108.93642 14.3319,-17.83175 42.97468,44.36017 42.97468,44.36017"
       id="path6017"
       inkscape:connector-curvature="0"
       sodipodi:nodetypes="csssc" />
    <path
       sodipodi:nodetypes="csssc"
       inkscape:connector-curvature="0"
       id="path6020"
       d="m 523.18036,416.90437 c -4.93881,46.05449 6.55039,46.73387 22.98441,54.03208 16.43403,7.29819 35.46262,-20.56995 44.3073,-64.88986 8.84471,-44.31993 4.71421,-91.10467 -9.61769,-108.93642 -14.3319,-17.83175 -42.97468,44.36017 -42.97468,44.36017"
       style="opacity:1;fill:#d4637e;fill-opacity:1" />
    <path
       sodipodi:nodetypes="ccccc"
       inkscape:connector-curvature="0"
       id="path6025"
       d="m 279.26677,569.13136 c 92.7995,37.71724 65.61918,54.32338 172.00143,-6.36473 l -4.93673,95.70146 c -162.62132,1.23114 -107.87016,-4.16439 -162.31842,-7.2497 z"
       style="opacity:1;fill:#d4637e;fill-opacity:1" />
    <path
       style="opacity:1;fill:#d4637e;fill-opacity:1"
       d="m 259.90164,649.60809 206.81967,0 c 45.2282,0 81.63935,36.41115 81.63935,81.63935 l 0,123.36615 c 0,104.5581 1.60841,81.63934 -81.63935,81.63934 l -206.81967,0 c -115.45773,0 -81.63934,-0.0996 -81.63934,-81.63934 l 0,-123.36615 c 0,-45.2282 36.41115,-81.63935 81.63934,-81.63935 z"
       id="rect6030"
       inkscape:connector-curvature="0"
       sodipodi:nodetypes="sssssssss" />
    <path
       style="opacity:1;fill:#bb4561;fill-opacity:1"
       d="m 279.26677,570.24104 c 92.7995,31.41807 65.61918,47.4805 172.00143,-3.47441 l -1.30831,43.17094 c -154.45411,44.37091 -111.49858,6.90093 -165.94684,5.11354 z"
       id="path6035"
       inkscape:connector-curvature="0"
       sodipodi:nodetypes="ccccc" />
    <path
       sodipodi:nodetypes="sssss"
       inkscape:connector-curvature="0"
       id="path6039"
       d="m 543.92354,337.82097 c -10e-6,97.06343 -82.71147,270.67893 -181.90037,270.67893 -99.1889,0 -177.29442,-173.6155 -177.29443,-270.67893 0,-97.06343 62.31642,-162.91363 182.03074,-162.92392 99.32155,-0.009 177.16406,65.86049 177.16406,162.92392 z"
       style="opacity:1;fill:#d4637e;fill-opacity:1" />
    <path
       style="opacity:1;fill:#b00000;fill-opacity:0"
       id="path6045"
       sodipodi:type="arc"
       sodipodi:cx="322.61823"
       sodipodi:cy="408.08307"
       sodipodi:rx="46.908882"
       sodipodi:ry="44.994232"
       sodipodi:start="0"
       sodipodi:end="5.8067104"
       d="m 369.52711,408.08307 a 46.908882,44.994232 0 0 1 -41.33436,44.67539 46.908882,44.994232 0 0 1 -51.15849,-34.05719 46.908882,44.994232 0 0 1 29.1753,-52.76992 46.908882,44.994232 0 0 1 58.09271,21.51513"
       sodipodi:open="true" />
    <path
       style="opacity:1;fill:#993535;fill-opacity:0"
       id="path6061"
       sodipodi:type="arc"
       sodipodi:cx="156.04382"
       sodipodi:cy="651.24341"
       sodipodi:rx="41.164936"
       sodipodi:ry="31.591696"
       sodipodi:start="5.1727021"
       sodipodi:end="5.8067104"
       d="m 174.33047,622.93998 a 41.164936,31.591696 0 0 1 18.29322,13.81391 l -36.57987,14.48952 z" />
    <path
       style="opacity:1;fill:#ffffff;fill-opacity:0.39215686;stroke:#6c4c4c;stroke-width:0.45265463;stroke-opacity:1"
       d="m 336.05453,346.26076 c -1.63136,12.40219 -38.87437,18.4586 -57.74943,15.8961 -18.87499,-2.56249 -51.59622,-24.2712 -49.96487,-36.67335 1.63135,-12.40213 37.90642,-17.71091 56.78145,-15.14837 18.87501,2.5625 52.5642,23.5235 50.93285,35.92562 z"
       id="path6082"
       inkscape:connector-curvature="0"
       sodipodi:nodetypes="sssss" />
    <path
       sodipodi:nodetypes="sssss"
       inkscape:connector-curvature="0"
       id="path6084"
       d="m 396.82779,346.26076 c 1.63136,12.40219 38.87437,18.4586 57.74943,15.8961 18.87499,-2.56249 51.59622,-24.2712 49.96487,-36.67335 -1.63135,-12.40213 -37.90642,-17.71091 -56.78145,-15.14837 -18.87501,2.5625 -52.5642,23.5235 -50.93285,35.92562 z"
       style="opacity:1;fill:#ffffff;fill-opacity:0.39215686;stroke:#fff8f8;stroke-width:0.45265463;stroke-opacity:1" />
    <ellipse
       style="opacity:1;fill:#24c860;fill-opacity:0.39215686;stroke:#b44d4d;stroke-width:0.33950794;stroke-opacity:1"
       id="path6109"
       cx="283.96494"
       cy="335.05249"
       rx="21.391378"
       ry="19.476725" />
    <ellipse
       ry="19.476725"
       rx="21.391378"
       cy="335.05249"
       cx="446.70953"
       id="ellipse6117"
       style="opacity:1;fill:#24c860;fill-opacity:0.39215686;stroke:#b44d4d;stroke-width:0.33950794;stroke-opacity:1" />
    <ellipse
       ry="10.54866"
       rx="9.9878788"
       cy="334.03998"
       cx="284.47705"
       id="ellipse6119"
       style="opacity:1;fill:#09110c;fill-opacity:0.39215686;stroke:#b44d4d;stroke-width:0.17072923;stroke-opacity:1" />
    <ellipse
       style="opacity:1;fill:#09110c;fill-opacity:0.39215686;stroke:#b44d4d;stroke-width:0.17072923;stroke-opacity:1"
       id="ellipse6131"
       cx="445.58536"
       cy="334.03998"
       rx="9.9878788"
       ry="10.54866" />
    <path
       sodipodi:nodetypes="ccccccc"
       inkscape:connector-curvature="0"
       id="path6143"
       d="m 509.66716,305.57005 2.64686,-12.0627 -1.46055,-23.74921 -10.55048,16.87284 -12.82105,7.61117 18.0437,6.05799 z"
       inkscape:transform-center-y="-2.5197169"
       inkscape:transform-center-x="2.1810455"
       style="opacity:1;fill:#09110c;fill-opacity:0.39215686;stroke:#b44d4d;stroke-width:0.39616391;stroke-opacity:1" />
    <path
       sodipodi:nodetypes="ccccccc"
       inkscape:connector-curvature="0"
       id="path6145"
       d="m 402.14902,330.16226 c 17.12605,-8.28311 29.50221,-19.23745 64.65464,-20.08183 36.45407,7.22993 21.51953,4.729 36.45407,7.22993 l 7.91633,-14.60018 -19.50027,-8.29028 c -21.88888,-0.41252 -44.5752,-2.3648 -59.30282,11.04987 z"
       inkscape:transform-center-y="5.0778246"
       inkscape:transform-center-x="14.419257"
       style="opacity:1;fill:#09110c;fill-opacity:0.39215686;stroke:#b44d4d;stroke-width:0.29898787;stroke-opacity:1" />
    <path
       style="opacity:1;fill:#09110c;fill-opacity:0.39215686;stroke:#b44d4d;stroke-width:0.39616391;stroke-opacity:1"
       inkscape:transform-center-x="1.5817197"
       inkscape:transform-center-y="-3.7590328"
       d="m 497.03389,301.7102 0.74249,-12.32734 -5.12906,-23.2347 -7.80373,18.30595 -11.4843,9.50893 18.76531,3.18394 z"
       id="path6147"
       inkscape:connector-curvature="0"
       sodipodi:nodetypes="ccccccc" />
    <path
       style="fill:#1a0d0d;fill-rule:evenodd;stroke:none;stroke-width:1px;stroke-linecap:butt;stroke-linejoin:miter;stroke-opacity:1;fill-opacity:1"
       d="m 231.29665,322.7073 5.35176,-34.7864 c 46.56952,-1.08149 67.60693,3.28349 78.88111,11.68727 5.6359,4.20101 8.86429,9.43709 11.62186,15.6112 2.56391,5.74047 4.80243,12.52649 8.16219,19.80523 -9.84724,-5.39465 -24.48192,-16.74359 -41.92388,-22.90015 -18.33065,-6.47025 -39.92873,-7.29818 -62.88929,10.10838 z m -0.19213,0.32241 c 22.64336,-17.16609 43.87088,-16.34457 61.95232,-9.96228 18.17399,6.41495 33.0039,18.35578 43.11843,23.54727 a 0.5000028,0.50000588 0 0 0 0.67951,-0.66032 c -3.7638,-7.88068 -5.96326,-14.81312 -8.79033,-21.14282 -2.79252,-6.25235 -6.10886,-11.66064 -11.93729,-16.00515 -11.62076,-8.66213 -33.09817,-12.99185 -79.92113,-11.87538 a 0.50005075,0.4999996 3.6896043 0 0 -0.48231,0.42383 l -5.41545,35.20038 z"
       id="path6223"
       inkscape:path-effect="#path-effect6225"
       inkscape:original-d="m 230.80246,322.63127 5.41545,-35.20038 C 329.90307,285.197 321.432,304.82218 336.4036,336.16988 316.45365,325.93017 276.40638,288.05862 230.80246,322.63127 Z"
       inkscape:connector-curvature="0"
       sodipodi:nodetypes="cccc" />
    <path
       style="fill:#822a29;fill-rule:nonzero;stroke:#822a29;stroke-width:1px;stroke-linecap:butt;stroke-linejoin:miter;stroke-opacity:1;fill-opacity:1"
       d="m 138.49073,158.45804 c 3.90537,-19.99582 17.76686,-45.55797 36.70144,-66.554612 18.94076,-21.003493 42.86495,-37.337842 66.84329,-39.042482 a 0.5,0.5 0 0 0 0.158,-0.03768 c 36.24351,-15.20799 85.60434,-16.284765 126.457,-10.759199 20.41949,2.761858 38.68317,7.169385 52.08816,12.267478 6.70441,2.549773 12.17406,5.265039 16.08708,8.02105 3.93463,2.771223 6.20213,5.517817 6.68274,8.101069 a 0.4999998,0.50003175 83.956761 0 0 0.50509,0.408363 c 14.68889,-0.396908 25.83356,10.480698 33.9597,22.594117 4.05337,6.042244 7.33155,12.354211 9.90604,17.644701 2.52224,5.18313 4.3735,9.40624 5.63261,11.42472 l 1.98985,23.87816 a 0.4999971,0.50001206 59.090468 0 0 0.91788,0.23038 c 8.04763,-12.41791 17.33166,-19.72029 25.66605,-24.23944 8.16886,-4.42939 15.4274,-6.18803 19.78527,-7.47261 41.69927,38.22696 50.63094,63.22455 45.25491,91.43359 -5.43689,28.52836 -25.31586,60.01867 -41.60285,111.85669 a 0.5,0.5 0 0 0 -0.0223,0.17556 c 2.12481,41.29298 14.42332,78.12672 18.24223,118.40118 3.8374,40.46945 -0.70693,85.13484 -32.14999,143.27483 -6.54641,6.77012 -10.59645,12.52569 -19.72839,20.22092 -9.13855,7.70081 -23.34307,17.31307 -50.10039,31.63651 l 0.11489,-0.0443 -1.6e-4,-10e-6 c -34.41016,8.58185 -55.31907,13.61053 -90.62722,12.7382 -35.33831,-0.87307 -85.0943,-7.65811 -177.17077,-22.74647 l 0.23106,0.10264 -3e-5,-1.3e-4 c -3.53672,-2.82294 -6.03582,-7.73821 -7.7672,-14.35931 -1.72843,-6.60979 -2.67316,-14.84543 -3.15835,-24.22257 0,0 -1e-5,-1.3e-4 -1e-5,-1.3e-4 -0.97077,-18.76223 -0.0983,-41.96447 -0.0455,-65.6773 0.0527,-23.68847 -0.71375,-47.86382 -4.97696,-68.48095 -4.26098,-20.60637 -12.0344,-37.75928 -26.08319,-47.28263 l -1e-4,-7e-5 0.1778,0.61366 33.99998,-77.99995 a 0.49996487,0.50017075 47.926402 0 0 0.0181,-0.3517 c -11.92295,-37.40073 -26.17376,-64.68921 -36.28227,-89.64519 -10.11528,-24.97269 -16.12273,-47.68418 -11.70005,-76.12612 z m -0.98479,-0.17267 c -4.4621,28.69542 1.61375,51.6028 11.76132,76.65521 10.1381,25.02903 24.30053,52.12515 36.1992,89.39432 l -33.92481,77.82751 a 0.57103885,0.04891537 78.738306 0 0 0.1778,0.61366 l 2e-5,1.3e-4 c 13.72254,9.30209 21.42218,26.13838 25.66509,46.65733 4.2407,20.5083 5.00895,44.59454 4.95624,68.27622 -0.0526,23.65732 -0.92573,46.93377 0.0469,65.7312 0,0 10e-6,1.3e-4 10e-6,1.3e-4 0.4865,9.40258 1.43569,17.7169 3.18954,24.42389 1.75089,6.69569 4.32241,11.86402 8.11081,14.88796 l 5e-5,5e-5 a 0.27064539,0.07916197 7.6477586 0 0 0.23106,0.10264 c 92.06146,15.08589 141.88888,21.88426 177.30779,22.75932 35.44898,0.87581 56.47109,-4.1826 90.89394,-12.76757 l 1.2e-4,-3e-5 a 0.02890733,0.17051475 59.28973 0 0 0.11508,-0.0444 c 26.78483,-14.33817 41.05803,-23.98838 50.2728,-31.75341 9.19912,-7.75185 13.38049,-13.65615 19.85035,-20.33956 a 0.49966675,0.50057685 81.19254 0 0 0.0805,-0.10986 c 31.57173,-58.35271 36.15499,-103.23643 32.29866,-143.90546 -3.87334,-40.84859 -16.08217,-76.73151 -18.23445,-118.26839 16.13878,-51.33098 36.1813,-83.42851 41.60419,-111.88343 5.47782,-28.74312 -3.76697,-54.09976 -45.77055,-92.54946 a 0.5,0.5 0 0 0 -0.48079,-0.11025 c -4.27824,1.27862 -11.78848,3.04554 -20.24781,7.63243 -8.1913,4.44156 -17.27053,11.52426 -25.23068,23.3658 l -1.88006,-22.56069 a 0.50010429,0.499962 26.350402 0 0 -0.0768,-0.22751 c -1.19202,-1.8675 -3.0535,-6.10857 -5.643,-11.4299 -2.58214,-5.30622 -5.88368,-11.665751 -9.97477,-17.764227 -8.08864,-12.05751 -19.35914,-23.243801 -34.40262,-23.044999 -0.70523,-2.841108 -3.19949,-5.642588 -6.99953,-8.319025 -4.00731,-2.822415 -9.56162,-5.572643 -16.30744,-8.138165 -13.49546,-5.132499 -31.83731,-9.554769 -52.3096,-12.323768 -40.90255,-5.532315 -90.42995,-4.480347 -126.90213,10.796277 -24.32668,1.762737 -48.44198,18.305338 -67.43282,39.364366 -19.01842,21.089601 -32.99049,46.809431 -36.94027,67.032631 z"
       id="path3393"
       inkscape:path-effect="#path-effect3395"
       inkscape:original-d="m 138,158.3622 c 7.85515,-40.21902 55.66712,-102.563972 104,-105.999995 72.72285,-30.514939 197.85708,-4.268077 202,18 29.9401,-0.809038 45.09578,44.316735 50,51.999995 l 2,24 c 16.19505,-24.9898 37.39787,-29.42911 46,-32 83.88161,76.78448 36.43039,100.78097 4,204 4.26412,82.86794 49.0443,145.47785 -14,262 -13.04447,13.47501 -16.45773,23.33832 -70,52 -68.83319,17.16681 -83.86207,20.17425 -268,-10 -29.30062,-23.38786 13.54276,-182.34904 -42,-220 l 34,-78 c -23.8334,-74.76225 -56.88478,-108.86264 -48,-166 z"
       inkscape:connector-curvature="0"
       sodipodi:nodetypes="ccccccccccccc" />
  </g>
</svg>
